<?xml version="1.0" encoding="UTF-8"?>
<svg width="56px" height="44px" viewBox="0 0 56 44" version="1.1" xmlns="http://www.w3.org/2000/svg" xmlns:xlink="http://www.w3.org/1999/xlink">
    <!-- Generator: Sketch 47.1 (45422) - http://www.bohemiancoding.com/sketch -->
    <title>forum</title>
    <desc>Created with Sketch.</desc>
    <defs></defs>
    <g id="Page-1" stroke="none" stroke-width="1" fill="none" fill-rule="evenodd">
        <g id="Group-3" transform="translate(7.000000, 4.000000)" stroke="#000000">
            <ellipse id="Oval-5" cx="9.5" cy="18.8857143" rx="4.875" ry="4.88571429"></ellipse>
            <ellipse id="Oval-5" cx="22.5" cy="24.5857143" rx="4.0625" ry="4.07142857"></ellipse>
            <path d="M0.198115272,35.4198562 C0.198115272,35.4198562 -0.891577035,27.7984185 9.50453034,27.7984185 C19.9006377,27.7984185 19.1853273,34.5752759 19.1853273,35.3177966 C19.1853273,36.0603173 0.198115272,35.4198562 0.198115272,35.4198562 Z" id="Path-12"></path>
            <path d="M21.3530097,35.3015125 C21.9123731,33.089345 20.6480657,30.771536 20.6480657,30.771536 C20.6480657,30.771536 28.7468337,30.2854623 28.7468337,35.3015125 C28.7343107,35.5627216 21.3438783,35.3119714 21.3530097,35.3015125 Z" id="Path-19"></path>
            <path d="M39.6928166,17.7822109 L41.4012736,17.7822109 L41.4012736,5 L34.2749023,5 L34.2749023,14.1066895 L26,14.1066895 L26,17.7822109 L34.9694618,17.7822109 L39.6928166,21.8325787 L39.6928166,17.7822109 Z" id="Combined-Shape"></path>
            <path d="M32.13323,14.0603308 L34.1461781,14.0603308 L34.1461781,0 L16,0 L16,14.0603308 L26.5680514,14.0603308 L32.13323,18.8325787 L32.13323,14.0603308 Z" id="Combined-Shape" transform="translate(25.073089, 9.416289) scale(-1, 1) translate(-25.073089, -9.416289) "></path>
            <circle id="Oval" cx="20" cy="7" r="1"></circle>
            <circle id="Oval" cx="25" cy="7" r="1"></circle>
            <circle id="Oval" cx="30" cy="7" r="1"></circle>
        </g>
    </g>
</svg>