<?xml version="1.0" encoding="UTF-8"?>
<svg width="80px" height="17px" viewBox="0 0 80 17" version="1.1" xmlns="http://www.w3.org/2000/svg" xmlns:xlink="http://www.w3.org/1999/xlink">
    <!-- Generator: Sketch 47.1 (45422) - http://www.bohemiancoding.com/sketch -->
    <title>skygear-logo</title>
    <desc>Created with Sketch.</desc>
    <defs>
        <polygon id="path-1" points="8.26717196 0.00270514944 0.00765571008 0.00270514944 0.00765571008 12.1601147 8.26717196 12.1601147 8.26717196 0.00270514944"></polygon>
        <polygon id="path-3" points="0.018507049 11.6767677 7.77085702 11.6767677 7.77085702 0.00935719356 0.018507049 0.00935719356 0.018507049 11.6767677"></polygon>
        <polygon id="path-5" points="5.34528367 8.26772712 5.34528367 0.0103655519 0.0193660003 0.0103655519 0.0193660003 8.26772712 5.34528367 8.26772712"></polygon>
        <polygon id="path-7" points="0 0.00475995345 0 13.1244262 20.4246583 13.1244262 20.4246583 0.00475995345 5.36180047e-22 0.00475995345"></polygon>
    </defs>
    <g id="Page-1" stroke="none" stroke-width="1" fill="none" fill-rule="evenodd">
        <g id="skygear-logo">
            <path d="M21.7149422,9.16060852 C22.9612697,10.0084641 24.5313,10.3834612 25.4539045,10.3834612 C26.3926971,10.3834612 27.0886874,10.0084641 27.0886874,9.12801503 C27.0886874,8.03559698 25.9880333,7.93777604 24.4827556,7.44863091 C22.8641407,6.9105652 21.4074074,6.11165041 21.4074074,4.05724895 C21.4074074,1.85610598 23.0583785,0.486531987 25.5186571,0.486531987 C26.6678556,0.486531987 28.0760445,0.779994787 29.0957579,1.33436736 L29.0957579,3.89420058 C27.8494304,3.11157241 26.4088852,2.75286194 25.5024689,2.75286194 C24.628429,2.75286194 23.9971712,3.07895869 23.9971712,3.86158685 C23.9971712,4.90508433 25.081617,4.9865984 26.489806,5.4594569 C28.2540942,6.04642297 29.6784512,6.87797171 29.6784512,8.96496666 C29.6784512,11.2639306 27.9465594,12.6498316 25.4215282,12.6498316 C24.2561415,12.6498316 22.8155963,12.3563284 21.7149422,11.7856692 L21.7149422,9.16060852 Z" id="Fill-1" fill="#FFFFFF"></path>
            <g id="Group-5" transform="translate(30.651515, 0.000000)">
                <mask id="mask-2" fill="white">
                    <use xlink:href="#path-1"></use>
                </mask>
                <g id="Clip-4"></g>
                <polygon id="Fill-3" fill="#FFFFFF" mask="url(#mask-2)" points="0.00765571008 0.00269922575 2.4549257 0.00269922575 2.4549257 7.6408565 2.48711085 7.65679121 5.25639216 4.33099756 8.04175605 4.33099756 5.01487369 7.83181636 8.26717196 12.1601147 5.36909013 12.1601147 2.48711085 8.16599117 2.4549257 8.18190614 2.4549257 12.1601147 0.00765571008 12.1601147"></polygon>
            </g>
            <path d="M40.061358,16.0555556 L42.1304544,11.561963 L38.9225589,4.37878788 L41.4888673,4.37878788 L42.3068928,6.37956245 C42.6597697,7.24877342 42.996585,8.10158226 43.3173785,8.93796863 L43.3494619,8.93796863 C43.7023188,8.05237588 44.0551957,7.19956704 44.4241142,6.33037642 L45.2581615,4.37878788 L47.6801347,4.37878788 L42.547478,16.0555556 L40.061358,16.0555556 Z" id="Fill-6" fill="#FFFFFF"></path>
            <g id="Group-10" transform="translate(47.680135, 4.378788)">
                <mask id="mask-4" fill="white">
                    <use xlink:href="#path-3"></use>
                </mask>
                <g id="Clip-9"></g>
                <path d="M5.4046745,2.34603225 C5.10890168,2.18705464 4.65745795,2.05989227 4.23715226,2.05989227 C3.00737325,2.05989227 2.41582762,2.98184409 2.41582762,3.99918247 C2.41582762,5.1436635 3.10076807,5.95433099 4.20601421,5.95433099 C4.62633922,5.95433099 5.07776363,5.82716862 5.4046745,5.62053717 L5.4046745,2.34603225 Z M1.06149641,8.81555328 C1.83985101,9.30830498 2.72715014,9.61034272 3.53664278,9.61034272 C4.68859599,9.61034272 5.4046745,9.00630669 5.4046745,7.8459279 L5.4046745,7.41672779 L5.37353645,7.40083003 C4.92209272,7.73464357 4.22158324,7.92539698 3.58333054,7.92539698 C1.73086784,7.92539698 0.018507049,6.46300018 0.018507049,4.09452959 C0.018507049,1.80558726 1.621904,0.00935719356 4.00365554,0.00935719356 C4.73530307,0.00935719356 5.37353645,0.184212845 5.91837501,0.454455064 L7.77085702,0.120641523 L7.77085702,7.8459279 C7.77085702,10.3097456 6.120753,11.6767756 3.67674468,11.6767756 C2.69603141,11.6767756 1.73086784,11.4383486 1.06149641,11.1045351 L1.06149641,8.81555328 Z" id="Fill-8" fill="#FFFFFF" mask="url(#mask-4)"></path>
            </g>
            <path d="M62.4981413,7.61317454 C62.3560312,6.76033029 61.7402141,6.24539303 60.9665143,6.24539303 C60.2243793,6.24539303 59.5769779,6.71204931 59.3717186,7.61317454 L62.4981413,7.61317454 Z M59.3874912,9.15796637 C59.6559192,10.2521956 60.5401644,10.7510192 61.6454806,10.7510192 C62.5139335,10.7510192 63.4613474,10.4452796 64.2824238,9.8820813 L64.2824238,11.9256968 C63.5244966,12.4084467 62.3560312,12.6498316 61.329676,12.6498316 C58.7716937,12.6498316 56.9242424,11.0245915 56.9242424,8.5464871 C56.9242424,6.0201217 58.850635,4.37878788 60.9980791,4.37878788 C62.9086991,4.37878788 64.7087542,5.66610109 64.7087542,8.32121578 C64.7087542,8.59476809 64.6929816,8.9487887 64.6613972,9.15796637 L59.3874912,9.15796637 Z" id="Fill-11" fill="#FFFFFF"></path>
            <path d="M69.6912312,9.367164 C69.4370484,9.28671566 69.0875322,9.25450837 68.8333494,9.25450837 C68.2137615,9.25450837 67.5941736,9.44761234 67.5941736,10.0590916 C67.5941736,10.5740089 68.0390034,10.8475812 68.5950555,10.8475812 C69.0081075,10.8475812 69.4052706,10.7027582 69.6912312,10.5257479 L69.6912312,9.367164 Z M70.1042833,11.9900714 C69.5959176,12.3601857 68.8174605,12.6498316 67.9278009,12.6498316 C67.2605463,12.6498316 66.6250893,12.488915 66.1167039,12.1348944 C65.5447827,11.7326128 65.1952862,11.1050398 65.1952862,10.2843829 C65.1952862,9.41542502 65.5924493,8.75568473 66.1484817,8.3694768 C66.7521807,7.9511015 67.530618,7.80627851 68.3408529,7.80627851 C68.8015716,7.80627851 69.2622903,7.8545595 69.6912312,7.9511015 L69.6912312,7.64538183 C69.6912312,7.2591739 69.5641398,6.96952792 69.3893817,6.80859131 C69.1669767,6.59941365 68.7539247,6.47068432 68.1819837,6.47068432 C67.308213,6.47068432 66.513867,6.76033029 65.8942988,7.09825725 L65.8942988,4.99026714 C66.5297559,4.66843385 67.4829711,4.37878788 68.6268135,4.37878788 C69.6753423,4.37878788 70.6126686,4.62017283 71.2322565,5.13509013 C71.8200666,5.61784007 72.1060273,6.32586134 72.1060273,7.32352857 L72.1060273,10.0108106 C72.1060273,10.3809249 72.2490076,10.6383835 72.5826348,10.6383835 C72.7097263,10.6383835 72.8527066,10.6062162 72.979798,10.5418415 L72.979798,12.3762793 C72.7097263,12.5211023 72.2807853,12.6176443 71.8200666,12.6176443 C71.1845899,12.6176443 70.565002,12.440654 70.136061,11.9900714 L70.1042833,11.9900714 Z" id="Fill-13" fill="#FFFFFF"></path>
            <g id="Group-17" transform="translate(73.952862, 4.378788)">
                <mask id="mask-6" fill="white">
                    <use xlink:href="#path-5"></use>
                </mask>
                <g id="Clip-16"></g>
                <path d="M0.0193660003,0.109864974 L2.45360716,0.109864974 L2.45360716,1.20419402 L2.48626562,1.22077726 C3.04174324,0.424905328 3.82593145,0.0103655519 4.82249086,0.0103655519 C4.98586425,0.0103655519 5.165577,0.0269693636 5.34528975,0.0766984999 L5.34528975,2.44779277 C5.14923763,2.39804306 4.90418769,2.36489716 4.67545684,2.36489716 C3.80959208,2.36489716 3.09076134,2.63016723 2.50262526,3.32658089 L2.50262526,8.26772712 L0.0193660003,8.26772712 L0.0193660003,0.109864974 Z" id="Fill-15" fill="#FFFFFF" mask="url(#mask-6)"></path>
            </g>
            <g id="Group-20">
                <mask id="mask-8" fill="white">
                    <use xlink:href="#path-7"></use>
                </mask>
                <g id="Clip-19"></g>
                <path d="M20.3365078,0.0120996988 L19.7719028,0.00475995345 L10.2978053,0.00475995345 C6.81943692,0.00475995345 3.80567788,2.84648777 3.68038153,6.32299476 C3.63092765,7.69509189 4.00464073,8.97624346 4.67897406,10.0493498 L4.67897406,10.0493498 L0.130186351,12.9022752 L0.0425738567,12.9572145 C-0.034396163,13.0055065 -0.000193859212,13.1244262 0.0906628101,13.1244262 L0.215029429,13.1244262 L10.2351373,13.1244262 C13.8576539,13.1244262 16.7942648,10.1874993 16.7942648,6.56459306 C16.7942648,6.17817822 16.7601614,5.79983512 16.6958912,5.43187845 L12.6387344,5.44364974 C12.8249579,5.667601 12.9175158,5.92391836 12.9533006,6.1840144 C12.9838236,6.31284573 12.9976509,6.4441698 12.9917757,6.57412879 C12.987681,6.66461935 12.9790166,6.75390309 12.9661389,6.84186134 C12.8240875,8.27002542 11.5967609,9.37876221 10.1206615,9.33108354 C8.67288924,9.28429514 7.49301856,8.10435689 7.44615606,6.6564289 C7.40993604,5.53748373 8.03837617,4.56208895 8.96632878,4.09319595 C9.35792439,3.87252878 9.80965592,3.74603193 10.2911785,3.74603193 C10.3470613,3.74603193 13.9227549,3.74797073 14.6798147,3.7483664 C14.7711857,3.74840597 14.8605786,3.72229151 14.9375881,3.67310928 L19.9164861,0.492585939 L20.3853287,0.175077656 C20.4576105,0.126152615 20.423784,0.0132273686 20.3365078,0.0120996988" id="Fill-18" fill="#FFFFFF" mask="url(#mask-8)"></path>
            </g>
        </g>
    </g>
</svg>