<?xml version="1.0" encoding="UTF-8"?>
<svg width="56px" height="44px" viewBox="0 0 56 44" version="1.1" xmlns="http://www.w3.org/2000/svg" xmlns:xlink="http://www.w3.org/1999/xlink">
    <!-- Generator: Sketch 47.1 (45422) - http://www.bohemiancoding.com/sketch -->
    <title>example copy</title>
    <desc>Created with Sketch.</desc>
    <defs></defs>
    <g id="Page-1" stroke="none" stroke-width="1" fill="none" fill-rule="evenodd">
        <g transform="translate(9.000000, 2.000000)" stroke="#000000">
            <polygon id="Fill-2" points="15.7255043 17.8251819 20.821406 16.1182014 22.4703674 21.0406568 17.3741604 22.7473319"></polygon>
            <g id="Group-5" transform="translate(0.000000, 0.026261)">
                <path d="M29.9693251,22.6447604 L27.4958829,23.4692411 L28.3508999,26.0342923 C28.6867995,27.0725273 28.1371457,28.2023713 27.0989107,28.5382708 C26.8851564,28.5993435 26.6408658,28.6604161 26.4271116,28.6298798 C25.6331671,28.5993435 24.8697591,28.080226 24.5949321,27.2862816 L23.7399151,24.7212304 L18.6403491,26.4312645 L19.4953661,28.9963157 C19.8312657,30.0345507 19.2816118,31.1643946 18.2433768,31.5002942 C18.0296226,31.5613669 17.785332,31.6224395 17.5715777,31.5919032 C16.7776333,31.5613669 16.0142252,31.0422494 15.7393983,30.2483049 L14.8843813,27.6832538 L12.4109391,28.5077345 C12.1971848,28.5688071 11.9528942,28.6298798 11.7391399,28.5993435 C10.9451955,28.5688071 10.1817874,28.0496896 9.90696052,27.2557452 C9.57106096,26.2175102 10.1207148,25.0876663 11.1589498,24.7517667 L13.632392,23.927286 L11.9834305,19.0109379 L9.50998831,19.8354186 C9.29623405,19.8964913 9.05194346,19.9575639 8.8381892,19.9270276 C8.04424478,19.8964913 7.2808367,19.3773738 7.00600978,18.5834293 C6.67011022,17.5451943 7.21976405,16.4153504 8.25799905,16.0794508 L10.7314413,15.2549701 L9.8764242,12.6899189 C9.54052464,11.6516839 10.0901785,10.5218399 11.1284135,10.1859404 C12.1666485,9.85004081 13.2964924,10.3996946 13.632392,11.4379296 L14.4874091,14.0029808 L19.5869751,12.2929467 L18.731958,9.72789552 C18.3960585,8.68966052 18.9457123,7.55981655 19.9839473,7.22391699 C21.0221823,6.88801743 22.1520263,7.43767125 22.4879258,8.47590625 L23.3429429,11.0409574 L25.8163851,10.2164767 C26.8546201,9.88057714 27.9844641,10.430231 28.3203636,11.468466 C28.6562632,12.506701 28.1066094,13.6365449 27.0683744,13.9724445 L24.5949321,14.7969252 L26.2438936,19.7132733 L28.7173358,18.8887926 C29.7555708,18.552893 30.8854148,19.1025468 31.2213144,20.1407818 C31.5572139,21.1790168 31.0075601,22.3088608 29.9693251,22.6447604 M36.5957073,14.1251261 C32.6565216,0.994506985 26.9767654,-2.05912537 13.8461463,1.88006037 C0.715527133,5.81924611 -2.33810522,11.4990023 1.60108052,24.6296214 C5.54026625,37.7602405 11.2200224,40.8138729 24.3506416,36.8746871 C37.4812607,32.9355014 40.534893,27.2557452 36.5957073,14.1251261" id="Fill-3"></path>
            </g>
        </g>
    </g>
</svg>